<svg width="34" height="31" viewBox="0 0 34 31" fill="none" xmlns="http://www.w3.org/2000/svg">
<path d="M14.0625 27.875C14.0625 28.4313 13.8975 28.975 13.5885 29.4375C13.2795 29.9001 12.8402 30.2605 12.3263 30.4734C11.8124 30.6863 11.2469 30.742 10.7013 30.6335C10.1557 30.5249 9.6546 30.2571 9.26126 29.8637C8.86793 29.4704 8.60006 28.9693 8.49154 28.4237C8.38302 27.8781 8.43872 27.3126 8.65159 26.7987C8.86446 26.2848 9.22494 25.8455 9.68746 25.5365C10.15 25.2274 10.6937 25.0625 11.25 25.0625C11.9959 25.0625 12.7113 25.3588 13.2387 25.8863C13.7662 26.4137 14.0625 27.1291 14.0625 27.875ZM25.875 25.0625C25.3187 25.0625 24.775 25.2274 24.3125 25.5365C23.8499 25.8455 23.4895 26.2848 23.2766 26.7987C23.0637 27.3126 23.008 27.8781 23.1165 28.4237C23.2251 28.9693 23.4929 29.4704 23.8863 29.8637C24.2796 30.2571 24.7807 30.5249 25.3263 30.6335C25.8719 30.742 26.4374 30.6863 26.9513 30.4734C27.4652 30.2605 27.9045 29.9001 28.2135 29.4375C28.5225 28.975 28.6875 28.4313 28.6875 27.875C28.6875 27.1291 28.3912 26.4137 27.8637 25.8863C27.3363 25.3588 26.6209 25.0625 25.875 25.0625ZM33.113 8.12141L29.2753 20.5948C29.0303 21.4015 28.5317 22.1077 27.8535 22.6085C27.1754 23.1093 26.3538 23.3781 25.5108 23.375H11.662C10.8069 23.3722 9.97569 23.0924 9.29296 22.5775C8.61022 22.0626 8.11272 21.3403 7.875 20.5189L3.06703 3.6875H1.6875C1.23995 3.6875 0.810725 3.50971 0.494257 3.19324C0.17779 2.87678 0 2.44755 0 2C0 1.55245 0.17779 1.12322 0.494257 0.806757C0.810725 0.49029 1.23995 0.3125 1.6875 0.3125H3.49031C4.10111 0.314387 4.69482 0.514272 5.1824 0.882169C5.66997 1.25007 6.0251 1.76614 6.19453 2.35297L7.21969 5.9375H31.5C31.7641 5.93748 32.0245 5.99944 32.2603 6.11841C32.4961 6.23738 32.7006 6.41002 32.8575 6.62246C33.0144 6.83489 33.1193 7.08119 33.1637 7.34153C33.208 7.60188 33.1907 7.869 33.113 8.12141ZM29.2148 9.3125H8.18297L11.1206 19.5922C11.1543 19.7098 11.2253 19.8132 11.323 19.8868C11.4207 19.9604 11.5397 20.0001 11.662 20H25.5108C25.6312 20.0002 25.7485 19.9618 25.8454 19.8905C25.9424 19.8191 26.0139 19.7185 26.0494 19.6034L29.2148 9.3125Z" fill="black"/>
</svg>
