<svg width="32" height="31" viewBox="0 0 32 31" fill="none" xmlns="http://www.w3.org/2000/svg">
<path d="M16 0.3125C12.9962 0.3125 10.0599 1.20323 7.56228 2.87206C5.06471 4.54088 3.11809 6.91284 1.96859 9.68799C0.819081 12.4631 0.518317 15.5168 1.10433 18.4629C1.69034 21.409 3.13681 24.1152 5.26082 26.2392C7.38483 28.3632 10.091 29.8097 13.0371 30.3957C15.9832 30.9817 19.0369 30.6809 21.812 29.5314C24.5872 28.3819 26.9591 26.4353 28.628 23.9377C30.2968 21.4402 31.1875 18.5038 31.1875 15.5C31.183 11.4734 29.5815 7.61299 26.7343 4.76575C23.887 1.91851 20.0266 0.316967 16 0.3125ZM9.18954 25.1427C9.97293 24.0715 10.9979 23.2002 12.1813 22.5996C13.3646 21.999 14.673 21.686 16 21.686C17.3271 21.686 18.6354 21.999 19.8187 22.5996C21.0021 23.2002 22.0271 24.0715 22.8105 25.1427C20.82 26.5542 18.4402 27.3124 16 27.3124C13.5598 27.3124 11.18 26.5542 9.18954 25.1427ZM12.0625 14.375C12.0625 13.5962 12.2934 12.835 12.7261 12.1874C13.1588 11.5399 13.7737 11.0352 14.4932 10.7372C15.2127 10.4392 16.0044 10.3612 16.7682 10.5132C17.532 10.6651 18.2336 11.0401 18.7842 11.5908C19.3349 12.1414 19.7099 12.843 19.8618 13.6068C20.0138 14.3706 19.9358 15.1623 19.6378 15.8818C19.3398 16.6013 18.8351 17.2163 18.1876 17.6489C17.54 18.0816 16.7788 18.3125 16 18.3125C14.9557 18.3125 13.9542 17.8977 13.2158 17.1592C12.4773 16.4208 12.0625 15.4193 12.0625 14.375ZM25.2813 22.8041C24.1875 21.4129 22.7934 20.287 21.2031 19.5106C22.2166 18.4843 22.9039 17.1812 23.1786 15.7653C23.4534 14.3493 23.3032 12.8837 22.747 11.5529C22.1909 10.2221 21.2536 9.08547 20.0531 8.28602C18.8525 7.48657 17.4424 7.06002 16 7.06002C14.5576 7.06002 13.1475 7.48657 11.947 8.28602C10.7464 9.08547 9.80912 10.2221 9.25297 11.5529C8.69681 12.8837 8.54665 14.3493 8.82137 15.7653C9.09608 17.1812 9.78341 18.4843 10.7969 19.5106C9.20665 20.287 7.81252 21.4129 6.71876 22.8041C5.34491 21.0625 4.48921 18.9693 4.24959 16.764C4.00998 14.5588 4.39614 12.3307 5.36388 10.3347C6.33161 8.33867 7.8418 6.6555 9.72158 5.47782C11.6014 4.30014 13.7748 3.67555 15.993 3.67555C18.2112 3.67555 20.3846 4.30014 22.2644 5.47782C24.1441 6.6555 25.6543 8.33867 26.6221 10.3347C27.5898 12.3307 27.976 14.5588 27.7364 16.764C27.4967 18.9693 26.641 21.0625 25.2672 22.8041H25.2813Z" fill="black"/>
</svg>
